# xmcd
#
# Track frame offsets: 
#        150
#        15764
#        38542
#        59030
#        76687
#        93651
#        112694
#        133929
#
# Disc length: 2084 seconds
#
# Revision: 0
# Processed by: cddbd v1.5.2PL0 Copyright (c) Steve Scherf et al.
# Submitted via: ExactAudioCopy v1.0b2
#
DISCID=55082208
DTITLE=Siu Black - K'Bing oi
DYEAR=2011
DGENRE=Vocal
TTITLE0=Xin con goi ten nhau
TTITLE1=Giu am bep hong
TTITLE2=Con chut gi de nho
TTITLE3=K'Bing oi
TTITLE4=Phep la
TTITLE5=Vuc sau
TTITLE6=Chi la giac mo
TTITLE7=Va con tim da vui tro lai
EXTD=
EXTT0=
EXTT1=
EXTT2=
EXTT3=
EXTT4=
EXTT5=
EXTT6=
EXTT7=
PLAYORDER=
